HIERARCHY
ROOT Hips
{
	OFFSET 0.000000 0.000000 0.000000
	CHANNELS 6 Xposition Yposition Zposition Zrotation Yrotation Xrotation 
	JOINT LHipJoint
	{
		OFFSET 0.000000 0.000000 0.000000
		CHANNELS 3 Zrotation Yrotation Xrotation
		JOINT LeftUpLeg
		{
			OFFSET 1.363060 -1.794630 0.839290
			CHANNELS 3 Zrotation Yrotation Xrotation
			JOINT LeftLeg
			{
				OFFSET 2.448110 -6.726130 0.000000
				CHANNELS 3 Zrotation Yrotation Xrotation
				JOINT LeftFoot
				{
					OFFSET 2.562200 -7.039590 0.000000
					CHANNELS 3 Zrotation Yrotation Xrotation
					JOINT LeftToeBase
					{
						OFFSET 0.157640 -0.433110 2.322550
						CHANNELS 3 Zrotation Yrotation Xrotation
						End Site
						{
							OFFSET 0.000000 0.000000 0.000000
						}
					}
				}
			}
		}
	}
	JOINT RHipJoint
	{
		OFFSET 0.000000 0.000000 0.000000
		CHANNELS 3 Zrotation Yrotation Xrotation
		JOINT RightUpLeg
		{
			OFFSET -1.305520 -1.794630 0.839290
			CHANNELS 3 Zrotation Yrotation Xrotation
			JOINT RightLeg
			{
				OFFSET -2.542530 -6.985550 0.000000
				CHANNELS 3 Zrotation Yrotation Xrotation
				JOINT RightFoot
				{
					OFFSET -2.568260 -7.056230 0.000000
					CHANNELS 3 Zrotation Yrotation Xrotation
					JOINT RightToeBase
					{
						OFFSET -0.164730 -0.452590 2.363150
						CHANNELS 3 Zrotation Yrotation Xrotation
						End Site
						{
							OFFSET 0.000000 0.000000 0.000000
						}
					}
				}
			}
		}
	}
}
MOTION
Frames: 27
Frame Time: 0.008333
3.400008 16.907673 -1.468273 -159.651385 83.669875 -158.813718 -11.709046 5.589453 0.172373 -3.860797 10.356241 11.621755 -0.139598 2.606683 30.027452 1.107689 2.269631 18.535456 0.482100 -0.000001 -62.057100 8.718168 -0.715536 0.275863 10.530744 -9.183939 -26.583922 2.639691 -0.960245 22.519410 -0.742335 -2.268995 -6.172471 -0.267800 -0.000000 -59.643700
3.653075 16.882432 -1.497697 -160.422520 83.129127 -159.867212 -11.813680 5.647415 0.154963 -3.061557 11.078557 10.665177 0.011332 2.695058 32.656150 1.263247 2.920981 19.593600 0.713001 0.000000 -58.147900 8.857186 -0.816106 -0.022122 10.414721 -10.794557 -26.653612 2.553828 -1.199059 24.640017 -0.575913 -1.459360 -5.631736 -0.232900 0.000001 -58.811500
3.902486 16.855671 -1.527918 -161.039681 82.586069 -160.727644 -11.915505 5.678216 0.117496 -2.275001 11.863421 9.533209 0.149445 2.774229 35.389963 1.420899 3.852399 20.181821 1.073900 0.000000 -53.645000 8.980922 -0.915134 -0.297792 10.283057 -12.398313 -26.682925 2.481551 -1.398798 26.552622 -0.433039 -0.686412 -5.270160 -0.184100 0.000000 -57.352200
4.148191 16.828091 -1.559109 -161.485671 82.056398 -161.366760 -12.012950 5.681526 0.060842 -1.533219 12.676621 8.245241 0.273342 2.849573 38.170170 1.572585 5.024932 20.244513 1.537200 0.000000 -48.945000 9.083059 -1.012430 -0.535075 10.139199 -13.879948 -26.646418 2.426520 -1.558357 28.226187 -0.319150 0.006868 -5.140140 -0.131300 0.000001 -55.304700
4.390222 16.800506 -1.591506 -161.790715 81.552760 -161.809520 -12.103225 5.658567 -0.012935 -0.872101 13.487105 6.824528 0.382922 2.925641 40.938930 1.712075 6.370847 19.763558 2.050200 -0.000000 -44.438400 9.162674 -1.107522 -0.724899 9.984842 -15.156700 -26.526481 2.388946 -1.680166 29.655955 -0.236683 0.584192 -5.267505 -0.084000 -0.000000 -52.800500
4.628751 16.773776 -1.625273 -162.025503 81.084571 -162.129061 -12.182167 5.611833 -0.100930 -0.328759 14.267302 5.300209 0.478604 3.005185 43.640515 1.835797 7.811940 18.757646 2.548700 -0.000000 -40.447600 9.223639 -1.199060 -0.865070 9.814521 -16.185086 -26.309173 2.365985 -1.768248 30.850451 -0.186026 1.018589 -5.645517 -0.048401 -0.000000 -50.058300
4.863973 16.748708 -1.660554 -162.253686 80.650754 -162.390135 -12.246918 5.543740 -0.200244 0.073575 15.003216 3.682388 0.560490 3.088936 46.243952 1.940296 9.259897 17.238341 2.961800 -0.000000 -36.922000 9.271045 -1.286497 -0.955005 9.625666 -16.942126 -25.997412 2.352104 -1.828200 31.836772 -0.168671 1.278625 -6.242138 -0.026200 0.000000 -47.310000
5.096152 16.726161 -1.697511 -162.558154 80.253176 -162.686085 -12.293572 5.457394 -0.307688 0.308481 15.681989 1.997586 0.627898 3.175050 48.704681 2.027201 10.656527 15.273540 3.240800 -0.000000 -33.993499 9.312264 -1.367902 -0.999773 9.404137 -17.438321 -25.584912 2.340860 -1.864634 32.633805 -0.184397 1.348621 -7.002154 -0.013500 0.000000 -44.804699
5.325560 16.706819 -1.736325 -162.992085 79.883602 -163.076857 -12.320492 5.355478 -0.419593 0.366238 16.299758 0.254612 0.678971 3.260416 50.999431 2.098619 11.954157 12.919776 3.349400 0.000000 -31.528200 9.353035 -1.442758 -1.005417 9.143493 -17.701629 -25.079637 2.325849 -1.882673 33.268721 -0.233182 1.216393 -7.860307 -0.002600 0.000000 -42.736600
5.552373 16.691266 -1.777216 -163.590816 79.531404 -163.606273 -12.327006 5.240367 -0.532264 0.245372 16.855831 -1.538443 0.710920 3.341261 53.109165 2.158649 13.126804 10.244866 3.271000 -0.000000 -29.350700 9.398020 -1.511027 -0.980715 8.838133 -17.780325 -24.490300 2.302089 -1.886842 33.764373 -0.313174 0.885225 -8.748668 0.015300 0.000000 -41.240400
5.776681 16.679930 -1.820466 -164.370266 79.183359 -164.298806 -12.313579 5.114295 -0.641492 -0.048609 17.351041 -3.375553 0.720875 3.413819 55.018909 2.213409 14.169653 7.334898 3.009600 0.000000 -27.364400 9.450274 -1.573167 -0.936087 8.485442 -17.736719 -23.826941 2.266626 -1.880764 34.137420 -0.420271 0.374313 -9.602293 0.046700 0.000000 -40.384700
5.998514 16.673088 -1.866349 -165.322031 78.825198 -165.153588 -12.281716 4.979406 -0.743299 -0.502980 17.788266 -5.253329 0.706483 3.475341 56.720045 2.269396 15.090646 4.275803 2.581700 0.000000 -25.426000 9.511063 -1.630072 -0.882755 8.085660 -17.640651 -23.099226 2.218974 -1.866897 34.396597 -0.547866 -0.281399 -10.364411 0.093700 -0.000000 -40.176400
6.217780 16.670835 -1.915140 -166.414736 78.443054 -166.146354 -12.233447 4.837338 -0.835043 -1.099458 18.174137 -7.168577 0.666979 3.524302 58.208778 2.333076 15.907837 1.157993 2.014600 -0.000000 -23.458400 9.580243 -1.682941 -0.831942 7.641096 -17.561334 -22.314618 2.161154 -1.846725 34.544231 -0.687037 -1.032943 -10.992116 0.152900 0.000000 -40.570300
6.434291 16.673096 -1.967071 -167.601411 78.025336 -167.236433 -12.170839 4.689764 -0.915283 -1.816736 18.517540 -9.117207 0.603148 3.560609 59.483981 2.409734 16.643718 -1.936073 1.339400 -0.000000 -21.371600 9.656584 -1.732803 -0.793793 7.154970 -17.560577 -21.476852 2.097115 -1.820515 34.575258 -0.827337 -1.822675 -11.457263 0.217000 -0.000000 -41.479800
6.647835 16.679665 -2.022335 -168.822771 77.564034 -168.369668 -12.095727 4.538066 -0.984359 -2.632596 18.829949 -11.093078 0.517318 3.585218 60.545601 2.502740 17.319927 -4.932987 0.587900 -0.000000 -19.119400 9.738089 -1.780549 -0.776340 6.630746 -17.684362 -20.585768 2.031997 -1.787833 34.480985 -0.958050 -2.590650 -11.748400 0.276200 0.000000 -42.787500
6.858192 16.690158 -2.080954 -170.022550 77.056290 -169.494064 -12.009201 4.383612 -1.044198 -3.526457 19.124488 -13.086211 0.412513 3.599633 61.392158 2.613200 17.953955 -7.776805 -0.210900 0.000001 -16.658900 9.822607 -1.826815 -0.784849 6.071036 -17.959437 -19.637431 1.971123 -1.747898 34.251566 -1.069389 -3.280749 -11.868801 0.321700 0.000001 -44.360300
7.065219 16.704095 -2.142963 -171.149656 76.503945 -170.561784 -11.912004 4.227385 -1.098140 -4.480478 19.414707 -15.082975 0.292092 3.605266 62.019215 2.739821 18.555594 -10.422661 -1.029900 -0.000000 -14.026000 9.907863 -1.872210 -0.821460 5.478052 -18.389548 -18.625679 1.918965 -1.700228 33.880385 -1.153872 -3.848071 -11.832743 0.347500 -0.000000 -46.066200
7.268911 16.720869 -2.208219 -172.168093 75.914279 -171.538232 -11.804495 4.070337 -1.150165 -5.480284 19.713953 -17.067267 0.158627 3.603049 62.419889 2.879022 19.124285 -12.845595 -1.846800 -0.000000 -11.251500 9.991777 -1.917551 -0.885044 4.854203 -18.957752 -17.544244 1.878342 -1.644918 33.366675 -1.207175 -4.263668 -11.660414 0.351300 -0.000001 -47.795800
7.469396 16.739904 -2.276524 -173.063289 75.299018 -172.407818 -11.686735 3.913625 -1.203677 -6.518123 20.031861 -19.021090 0.014043 3.592945 62.582163 3.025557 19.651146 -15.025565 -2.638700 -0.000000 -8.437300 10.072758 -1.963572 -0.971241 4.201700 -19.628261 -16.389277 1.849648 -1.582660 32.715021 -1.228671 -4.518927 -11.370131 0.333900 0.000000 -49.473101
7.667043 16.760567 -2.347710 -173.835440 74.672866 -173.167306 -11.558752 3.758536 -1.261066 -7.590625 20.375568 -20.928222 -0.140759 3.574054 62.492635 3.173135 20.120018 -16.953382 -3.384000 0.000000 -5.681100 10.149680 -2.011302 -1.072979 3.524200 -20.352375 -15.161820 1.830943 -1.514962 31.938882 -1.221116 -4.624099 -10.976713 0.298100 -0.000001 -51.059500
7.862376 16.782333 -2.421610 -174.497462 74.051945 -173.823293 -11.420510 3.606732 -1.322706 -8.699448 20.747324 -22.775680 -0.305385 3.544657 62.136825 3.315165 20.511382 -18.621450 -4.060601 -0.000000 -3.115000 10.221887 -2.061921 -1.181187 2.827903 -21.075056 -13.869788 1.818278 -1.443869 31.057836 -1.190159 -4.606940 -10.488315 0.247701 -0.000000 -52.549600
8.056173 16.804741 -2.498135 -175.071280 73.451934 -174.388893 -11.271815 3.460281 -1.386916 -9.849730 21.145357 -24.554613 -0.479684 3.502437 61.499768 3.445442 20.806184 -20.021352 -4.645900 -0.000001 -0.858100 10.289213 -2.116722 -1.285989 2.121722 -21.742742 -12.527871 1.806481 -1.371791 30.095656 -1.143192 -4.507055 -9.906480 0.186100 0.000000 -53.961100
8.249243 16.827421 -2.577322 -175.580652 72.886175 -174.878403 -11.112230 3.321657 -1.450027 -11.048815 21.564008 -26.260353 -0.663844 3.444893 60.569868 3.559380 20.990347 -21.154939 174.876800 0.000000 -1.006900 10.352028 -2.177115 -1.377994 1.415391 -22.312314 -11.157445 1.790199 -1.301497 29.080377 -1.087630 -4.366445 -9.227150 0.115900 0.000000 -55.328400
8.442491 16.850173 -2.659291 -176.048416 72.364025 -175.305414 -10.941298 3.193562 -1.506956 -12.303409 21.994676 -27.890539 -0.857686 3.369517 59.336840 3.653935 21.056874 -22.021872 174.520700 -0.000000 -2.415200 10.410897 -2.244488 -1.449472 0.719774 -22.754640 -9.782036 1.764812 -1.235529 28.037539 -1.030144 -4.224673 -8.442422 0.038000 0.000000 -56.688900
8.636812 16.872939 -2.744302 -176.492208 71.889604 -175.679995 -10.758580 3.078839 -1.551747 -13.618842 22.427500 -29.444407 -1.060733 3.274004 57.793133 3.727929 21.007255 -22.624663 174.293000 -0.000000 -3.294000 10.466678 -2.320162 -1.495346 0.043202 -23.060382 -8.425201 1.727217 -1.176098 26.989479 -0.975371 -4.110498 -7.541032 -0.047700 0.000000 -58.079200
8.832969 16.895769 -2.832657 -176.923544 71.462192 -176.009078 -10.563836 2.980269 -1.578521 -14.997174 22.852450 -30.920106 -1.272626 3.156436 55.934952 3.781899 20.849172 -22.975659 174.191399 0.000000 -3.627000 10.520336 -2.405263 -1.513625 -0.609389 -23.238962 -7.106491 1.676215 -1.124758 25.952367 -0.925590 -4.038105 -6.510883 -0.142800 0.000000 -59.530900
9.031537 16.918753 -2.924676 -177.347570 71.075343 -176.296638 -10.357181 2.900298 -1.581968 -16.436865 23.260139 -32.313380 -1.493163 3.015118 53.761678 3.817394 20.593275 -23.094851 174.207200 -0.000000 -3.414300 10.572983 -2.500463 -1.505413 -1.238695 -23.316943 -5.840676 1.612574 -1.082305 24.935886 -0.880679 -4.005283 -5.340547 -0.248600 -0.000000 -61.071000
